# xmcd
#
# Track frame offsets:
# 150
# 5305
# 13662
# 26948
# 40668
# 54245
# 67743
# 81304
# 94913
# 108175
# 122055
# 135203
# 148856
# 163164
# 175733
# 189308
# 202542
# 216197
# 229814
# 243371
# 256663
# 269994
# 283625
# 297098
# 319124
# 330934
#
# Disc length: 4602 seconds
#
#
# Revision: 0
# Processed by: cddbd v1.5.2PL0 Copyright (c) Steve Scherf et al.
# Submitted via: FreeRIP 2.945 
#
DISCID=6411f81a
DTITLE=Murphy-P2001 - Wild-Angel6
DYEAR=2001
DGENRE=Jungle
TTITLE0=WA 601
TTITLE1=WA 602
TTITLE2=WA 603
TTITLE3=WA 604
TTITLE4=WA 605
TTITLE5=WA 606
TTITLE6=WA 607
TTITLE7=WA 608
TTITLE8=WA 609
TTITLE9=WA 610
TTITLE10=WA 611
TTITLE11=WA 612
TTITLE12=WA 613
TTITLE13=WA 614
TTITLE14=WA 615
TTITLE15=WA 616
TTITLE16=WA 617
TTITLE17=WA 618
TTITLE18=WA 619
TTITLE19=WA 620
TTITLE20=WA 621
TTITLE21=WA 622
TTITLE22=WA 623
TTITLE23=WA 624
TTITLE24=WA 625
TTITLE25=WA 626
EXTD=Wild Angel by Pat (Patrice) Murphy 9 CDs\nread by Bernadette Dunne Blackstone Audio\njungle country
EXTT0=
EXTT1=
EXTT2=
EXTT3=
EXTT4=
EXTT5=
EXTT6=
EXTT7=
EXTT8=
EXTT9=
EXTT10=
EXTT11=
EXTT12=
EXTT13=
EXTT14=
EXTT15=
EXTT16=
EXTT17=
EXTT18=
EXTT19=
EXTT20=
EXTT21=
EXTT22=
EXTT23=
EXTT24=
EXTT25=
PLAYORDER=
